# WaveFront *.obj file (generated by Autodesk ATF)

mtllib a940acd4-aa3d-44db-808e-deebf9959b82.mtl

g Body3

v 0.000000 0.000000 0.000000
v -20.784610 -12.000000 0.000000
v -20.784610 -12.000000 1.500000
v 0.000000 0.000000 1.500000
v -20.784610 12.000000 0.000000
v -20.784610 12.000000 1.500000
v -21.925091 -9.761679 0.000000
v -22.825356 -7.416408 0.000000
v -23.475542 -4.989881 0.000000
v -23.868525 -2.508683 0.000000
v -24.000000 0.000000 0.000000
v -23.868525 2.508683 0.000000
v -23.475542 4.989881 0.000000
v -22.825356 7.416408 0.000000
v -21.925091 9.761679 0.000000
v -21.925091 9.761679 1.500000
v -22.825356 7.416408 1.500000
v -23.475542 4.989881 1.500000
v -23.868525 2.508683 1.500000
v -24.000000 0.000000 1.500000
v -23.868525 -2.508683 1.500000
v -23.475542 -4.989881 1.500000
v -22.825356 -7.416408 1.500000
v -21.925091 -9.761679 1.500000
v 0.500000 -0.866025 0.000000
v 0.707107 -0.707107 0.000000
v 0.866025 -0.500000 0.000000
v 0.965926 -0.258819 0.000000
v 1.000000 0.000000 0.000000
v 0.965926 0.258819 0.000000
v 0.866025 0.500000 0.000000
v 0.707107 0.707107 0.000000
v 0.500000 0.866025 0.000000
v 0.258819 0.965926 0.000000
v 0.000000 1.000000 0.000000
v 0.000000 1.000000 1.500000
v 0.258819 0.965926 1.500000
v 0.500000 0.866025 1.500000
v 0.707107 0.707107 1.500000
v 0.866025 0.500000 1.500000
v 0.965926 0.258819 1.500000
v 1.000000 0.000000 1.500000
v 0.965926 -0.258819 1.500000
v 0.866025 -0.500000 1.500000
v 0.707107 -0.707107 1.500000
v 0.500000 -0.866025 1.500000
v -21.133308 -13.356021 0.000000
v -21.133308 -13.356021 1.500000
v -21.204628 13.242498 0.000000
v -22.442667 11.014840 0.000000
v -23.447475 8.672712 0.000000
v -24.208608 6.240455 0.000000
v -24.718159 3.743345 0.000000
v -24.970830 1.207333 0.000000
v -24.963996 -1.341226 0.000000
v -24.697729 -3.875847 0.000000
v -24.174795 -6.370189 0.000000
v -23.400628 -8.798329 0.000000
v -22.383275 -11.135035 0.000000
v -22.383275 -11.135035 1.500000
v -23.400628 -8.798329 1.500000
v -24.174795 -6.370189 1.500000
v -24.697729 -3.875847 1.500000
v -24.963996 -1.341226 1.500000
v -24.970830 1.207333 1.500000
v -24.718159 3.743345 1.500000
v -24.208608 6.240455 1.500000
v -23.447475 8.672712 1.500000
v -22.442667 11.014840 1.500000
v -21.204628 13.242498 1.500000
vt 0.000000 0.000000 0.000000
vt 2.400000 0.000000 0.000000
vt 0.000000 0.150000 0.000000
vt 2.400000 0.150000 0.000000
vt 0.000000 0.000000 0.000000
vt 2.400000 0.000000 0.000000
vt 0.000000 0.150000 0.000000
vt 2.400000 0.150000 0.000000
vt 0.150000 -6.283185 0.000000
vt 0.000000 -6.283185 0.000000
vt 0.150000 -6.534513 0.000000
vt 0.000000 -6.534513 0.000000
vt 0.150000 -6.785840 0.000000
vt 0.000000 -6.785840 0.000000
vt 0.150000 -7.037168 0.000000
vt 0.000000 -7.037168 0.000000
vt 0.150000 -7.288495 0.000000
vt 0.000000 -7.288495 0.000000
vt 0.150000 -7.539822 0.000000
vt 0.000000 -7.539822 0.000000
vt 0.150000 -7.791150 0.000000
vt 0.000000 -7.791150 0.000000
vt 0.150000 -8.042477 0.000000
vt 0.000000 -8.042477 0.000000
vt 0.150000 -8.293805 0.000000
vt 0.000000 -8.293805 0.000000
vt 0.150000 -8.545132 0.000000
vt 0.000000 -8.545132 0.000000
vt 0.150000 -8.796459 0.000000
vt 0.000000 -8.796459 0.000000
vt -0.150000 -0.104720 0.000000
vt -0.000000 -0.104720 0.000000
vt -0.150000 -0.078540 0.000000
vt -0.000000 -0.078540 0.000000
vt -0.150000 -0.052360 0.000000
vt -0.000000 -0.052360 0.000000
vt -0.150000 -0.026180 0.000000
vt -0.000000 -0.026180 0.000000
vt -0.150000 0.000000 0.000000
vt -0.000000 0.000000 0.000000
vt -0.150000 0.026180 0.000000
vt -0.000000 0.026180 0.000000
vt -0.150000 0.052360 0.000000
vt -0.000000 0.052360 0.000000
vt -0.150000 0.078540 0.000000
vt -0.000000 0.078540 0.000000
vt -0.150000 0.104720 0.000000
vt -0.000000 0.104720 0.000000
vt -0.150000 0.130900 0.000000
vt -0.000000 0.130900 0.000000
vt -0.150000 0.157080 0.000000
vt -0.000000 0.157080 0.000000
vt 0.000000 0.000000 0.000000
vt 2.497999 0.000000 0.000000
vt 0.000000 0.150000 0.000000
vt 2.497999 0.150000 0.000000
vt -0.150000 6.458365 0.000000
vt -0.000000 6.458365 0.000000
vt -0.150000 6.713332 0.000000
vt -0.000000 6.713332 0.000000
vt -0.150000 6.968299 0.000000
vt -0.000000 6.968299 0.000000
vt -0.150000 7.223267 0.000000
vt -0.000000 7.223267 0.000000
vt -0.150000 7.478234 0.000000
vt -0.000000 7.478234 0.000000
vt -0.150000 7.733201 0.000000
vt -0.000000 7.733201 0.000000
vt -0.150000 7.988169 0.000000
vt -0.000000 7.988169 0.000000
vt -0.150000 8.243136 0.000000
vt -0.000000 8.243136 0.000000
vt -0.150000 8.498103 0.000000
vt -0.000000 8.498103 0.000000
vt -0.150000 8.753071 0.000000
vt -0.000000 8.753071 0.000000
vt -0.150000 9.008038 0.000000
vt -0.000000 9.008038 0.000000
vt -0.150000 9.263005 0.000000
vt -0.000000 9.263005 0.000000
vt -0.000000 0.000000 0.000000
vt 2.448500 0.000000 0.000000
vt 0.000000 0.150000 0.000000
vt 2.448500 0.150000 0.000000
vt -0.992509 -0.970492 0.000000
vt -1.038328 -1.107827 0.000000
vt -0.878461 -1.194324 0.000000
vt -0.913331 -1.329926 0.000000
vt 1.250000 -0.080926 0.000000
vt -1.140063 -0.874157 0.000000
vt -1.082536 -0.735965 0.000000
vt -1.217479 -0.631343 0.000000
vt -1.147554 -0.493312 0.000000
vt -1.269773 -0.381909 0.000000
vt -1.186853 -0.245192 0.000000
vt -1.296400 -0.128446 0.000000
vt -1.200000 0.005676 0.000000
vt -1.297083 0.126409 0.000000
vt -1.186853 0.256544 0.000000
vt -1.271816 0.380011 0.000000
vt -1.147554 0.504664 0.000000
vt -1.220861 0.629722 0.000000
vt -1.082536 0.747317 0.000000
vt -1.144747 0.872947 0.000000
vt -0.992509 0.981844 0.000000
vt -1.044267 1.107160 0.000000
vt -0.878461 1.205676 0.000000
vt -0.920463 1.329926 0.000000
vt 1.200000 0.105676 0.000000
vt 1.200000 0.005676 0.000000
vt 1.225882 0.102269 0.000000
vt 1.250000 0.092279 0.000000
vt 1.270711 0.076387 0.000000
vt 1.286603 0.055676 0.000000
vt 1.296593 0.031558 0.000000
vt 1.300000 0.005676 0.000000
vt 1.296593 -0.020206 0.000000
vt 1.286603 -0.044324 0.000000
vt 1.270711 -0.065034 0.000000
vt 0.992509 0.981844 0.000000
vt 1.044267 1.107160 0.000000
vt 0.878461 1.205676 0.000000
vt 0.920463 1.329926 0.000000
vt -1.200000 0.105676 0.000000
vt 1.144747 0.872947 0.000000
vt 1.082536 0.747317 0.000000
vt 1.220861 0.629722 0.000000
vt 1.147554 0.504664 0.000000
vt 1.271816 0.380011 0.000000
vt 1.186853 0.256544 0.000000
vt 1.297083 0.126409 0.000000
vt 1.200000 0.005676 0.000000
vt 1.296400 -0.128446 0.000000
vt 1.186853 -0.245192 0.000000
vt 1.269773 -0.381909 0.000000
vt 1.147554 -0.493312 0.000000
vt 1.217479 -0.631343 0.000000
vt 1.082536 -0.735965 0.000000
vt 1.140063 -0.874157 0.000000
vt 0.992509 -0.970492 0.000000
vt 1.038328 -1.107827 0.000000
vt 0.878461 -1.194324 0.000000
vt 0.913331 -1.329926 0.000000
vt -1.250000 -0.080926 0.000000
vt -1.200000 0.005676 0.000000
vt -1.270711 -0.065034 0.000000
vt -1.286603 -0.044324 0.000000
vt -1.296593 -0.020206 0.000000
vt -1.300000 0.005676 0.000000
vt -1.296593 0.031558 0.000000
vt -1.286603 0.055676 0.000000
vt -1.270711 0.076387 0.000000
vt -1.250000 0.092279 0.000000
vt -1.225882 0.102269 0.000000
vn -0.050000 0.086603 0.000000
vn -0.050000 0.086603 0.000000
vn -0.050000 0.086603 0.000000
vn -0.050000 0.086603 0.000000
vn -0.050000 -0.086603 0.000000
vn -0.050000 -0.086603 0.000000
vn -0.050000 -0.086603 0.000000
vn -0.050000 -0.086603 0.000000
vn 0.086603 0.050000 0.000000
vn 0.086603 0.050000 0.000000
vn 0.091355 0.040674 0.000000
vn 0.091355 0.040674 0.000000
vn 0.095106 0.030902 0.000000
vn 0.095106 0.030902 0.000000
vn 0.097815 0.020791 0.000000
vn 0.097815 0.020791 0.000000
vn 0.099452 0.010453 0.000000
vn 0.099452 0.010453 0.000000
vn 0.100000 0.000000 0.000000
vn 0.100000 0.000000 0.000000
vn 0.099452 -0.010453 0.000000
vn 0.099452 -0.010453 0.000000
vn 0.097815 -0.020791 0.000000
vn 0.097815 -0.020791 0.000000
vn 0.095106 -0.030902 0.000000
vn 0.095106 -0.030902 0.000000
vn 0.091355 -0.040674 0.000000
vn 0.091355 -0.040674 0.000000
vn 0.086603 -0.050000 0.000000
vn 0.086603 -0.050000 0.000000
vn 0.050000 -0.086603 0.000000
vn 0.050000 -0.086603 0.000000
vn 0.070711 -0.070711 0.000000
vn 0.070711 -0.070711 0.000000
vn 0.086603 -0.050000 0.000000
vn 0.086603 -0.050000 0.000000
vn 0.096593 -0.025882 0.000000
vn 0.096593 -0.025882 0.000000
vn 0.100000 0.000000 0.000000
vn 0.100000 0.000000 0.000000
vn 0.096593 0.025882 0.000000
vn 0.096593 0.025882 0.000000
vn 0.086603 0.050000 0.000000
vn 0.086603 0.050000 0.000000
vn 0.070711 0.070711 0.000000
vn 0.070711 0.070711 0.000000
vn 0.050000 0.086603 0.000000
vn 0.050000 0.086603 0.000000
vn 0.025882 0.096593 0.000000
vn 0.025882 0.096593 0.000000
vn 0.000000 0.100000 0.000000
vn 0.000000 0.100000 0.000000
vn 0.050000 -0.086603 0.000000
vn 0.050000 -0.086603 0.000000
vn -0.084819 0.052970 -0.000000
vn -0.084819 0.052970 -0.000000
vn -0.089771 0.044059 -0.000000
vn -0.089771 0.044059 -0.000000
vn -0.093790 0.034691 -0.000000
vn -0.093790 0.034691 -0.000000
vn -0.096834 0.024962 -0.000000
vn -0.096834 0.024962 -0.000000
vn -0.098873 0.014973 -0.000000
vn -0.098873 0.014973 -0.000000
vn -0.099883 0.004829 -0.000000
vn -0.099883 0.004829 -0.000000
vn -0.099856 -0.005365 0.000000
vn -0.099856 -0.005365 0.000000
vn -0.098791 -0.015503 0.000000
vn -0.098791 -0.015503 0.000000
vn -0.096699 -0.025481 0.000000
vn -0.096699 -0.025481 0.000000
vn -0.093603 -0.035193 0.000000
vn -0.093603 -0.035193 0.000000
vn -0.089533 -0.044540 0.000000
vn -0.089533 -0.044540 0.000000
vn -0.084533 -0.053424 0.000000
vn -0.084533 -0.053424 0.000000
vn 0.050000 0.086603 0.000000
vn 0.050000 0.086603 0.000000
vn 0.050000 0.086603 0.000000
vn 0.050000 0.086603 0.000000
vn 0.000000 0.000000 0.100000
vn 0.000000 0.000000 0.100000
vn 0.000000 0.000000 0.100000
vn 0.000000 0.000000 0.100000
vn 0.000000 0.000000 0.100000
vn 0.000000 0.000000 0.100000
vn 0.000000 0.000000 0.100000
vn 0.000000 0.000000 0.100000
vn 0.000000 0.000000 0.100000
vn 0.000000 0.000000 0.100000
vn 0.000000 0.000000 0.100000
vn 0.000000 0.000000 0.100000
vn 0.000000 0.000000 0.100000
vn 0.000000 0.000000 0.100000
vn 0.000000 0.000000 0.100000
vn 0.000000 0.000000 0.100000
vn 0.000000 0.000000 0.100000
vn 0.000000 0.000000 0.100000
vn 0.000000 0.000000 0.100000
vn 0.000000 0.000000 0.100000
vn 0.000000 0.000000 0.100000
vn 0.000000 0.000000 0.100000
vn 0.000000 0.000000 0.100000
vn 0.000000 0.000000 0.100000
vn 0.000000 0.000000 0.100000
vn 0.000000 0.000000 0.100000
vn 0.000000 0.000000 0.100000
vn 0.000000 0.000000 0.100000
vn 0.000000 0.000000 0.100000
vn 0.000000 0.000000 0.100000
vn 0.000000 0.000000 0.100000
vn 0.000000 0.000000 0.100000
vn 0.000000 0.000000 0.100000
vn 0.000000 0.000000 0.100000
vn 0.000000 0.000000 0.100000
vn 0.000000 0.000000 -0.100000
vn 0.000000 0.000000 -0.100000
vn 0.000000 0.000000 -0.100000
vn 0.000000 0.000000 -0.100000
vn 0.000000 0.000000 -0.100000
vn 0.000000 0.000000 -0.100000
vn 0.000000 0.000000 -0.100000
vn 0.000000 0.000000 -0.100000
vn 0.000000 0.000000 -0.100000
vn 0.000000 0.000000 -0.100000
vn 0.000000 0.000000 -0.100000
vn 0.000000 0.000000 -0.100000
vn 0.000000 0.000000 -0.100000
vn 0.000000 0.000000 -0.100000
vn 0.000000 0.000000 -0.100000
vn 0.000000 0.000000 -0.100000
vn 0.000000 0.000000 -0.100000
vn 0.000000 0.000000 -0.100000
vn 0.000000 0.000000 -0.100000
vn 0.000000 0.000000 -0.100000
vn 0.000000 0.000000 -0.100000
vn 0.000000 0.000000 -0.100000
vn 0.000000 0.000000 -0.100000
vn 0.000000 0.000000 -0.100000
vn 0.000000 0.000000 -0.100000
vn 0.000000 0.000000 -0.100000
vn 0.000000 0.000000 -0.100000
vn 0.000000 0.000000 -0.100000
vn 0.000000 0.000000 -0.100000
vn 0.000000 0.000000 -0.100000
vn 0.000000 0.000000 -0.100000
vn 0.000000 0.000000 -0.100000
vn 0.000000 0.000000 -0.100000
vn 0.000000 0.000000 -0.100000
vn 0.000000 0.000000 -0.100000
usemtl Steel_-_Satin
f 1/1/1 2/2/2 4/3/3
f 4/3/3 2/2/2 3/4/4
f 5/5/5 1/6/6 6/7/7
f 6/7/7 1/6/6 4/8/8
f 3/9/9 2/10/10 24/11/11
f 24/11/11 2/10/10 7/12/12
f 24/11/11 7/12/12 23/13/13
f 23/13/13 7/12/12 8/14/14
f 23/13/13 8/14/14 22/15/15
f 22/15/15 8/14/14 9/16/16
f 22/15/15 9/16/16 21/17/17
f 21/17/17 9/16/16 10/18/18
f 21/17/17 10/18/18 20/19/19
f 20/19/19 10/18/18 11/20/20
f 20/19/19 11/20/20 19/21/21
f 19/21/21 11/20/20 12/22/22
f 19/21/21 12/22/22 18/23/23
f 18/23/23 12/22/22 13/24/24
f 18/23/23 13/24/24 17/25/25
f 17/25/25 13/24/24 14/26/26
f 17/25/25 14/26/26 16/27/27
f 16/27/27 14/26/26 15/28/28
f 16/27/27 15/28/28 6/29/29
f 6/29/29 15/28/28 5/30/30
f 46/31/31 25/32/32 45/33/33
f 45/33/33 25/32/32 26/34/34
f 45/33/33 26/34/34 44/35/35
f 44/35/35 26/34/34 27/36/36
f 44/35/35 27/36/36 43/37/37
f 43/37/37 27/36/36 28/38/38
f 43/37/37 28/38/38 42/39/39
f 42/39/39 28/38/38 29/40/40
f 42/39/39 29/40/40 41/41/41
f 41/41/41 29/40/40 30/42/42
f 41/41/41 30/42/42 40/43/43
f 40/43/43 30/42/42 31/44/44
f 40/43/43 31/44/44 39/45/45
f 39/45/45 31/44/44 32/46/46
f 39/45/45 32/46/46 38/47/47
f 38/47/47 32/46/46 33/48/48
f 38/47/47 33/48/48 37/49/49
f 37/49/49 33/48/48 34/50/50
f 37/49/49 34/50/50 36/51/51
f 36/51/51 34/50/50 35/52/52
f 47/53/53 25/54/32 48/55/54
f 48/55/54 25/54/32 46/56/31
f 70/57/55 49/58/56 69/59/57
f 69/59/57 49/58/56 50/60/58
f 69/59/57 50/60/58 68/61/59
f 68/61/59 50/60/58 51/62/60
f 68/61/59 51/62/60 67/63/61
f 67/63/61 51/62/60 52/64/62
f 67/63/61 52/64/62 66/65/63
f 66/65/63 52/64/62 53/66/64
f 66/65/63 53/66/64 65/67/65
f 65/67/65 53/66/64 54/68/66
f 65/67/65 54/68/66 64/69/67
f 64/69/67 54/68/66 55/70/68
f 64/69/67 55/70/68 63/71/69
f 63/71/69 55/70/68 56/72/70
f 63/71/69 56/72/70 62/73/71
f 62/73/71 56/72/70 57/74/72
f 62/73/71 57/74/72 61/75/73
f 61/75/73 57/74/72 58/76/74
f 61/75/73 58/76/74 60/77/75
f 60/77/75 58/76/74 59/78/76
f 60/77/75 59/78/76 48/79/77
f 48/79/77 59/78/76 47/80/78
f 35/81/79 49/82/80 36/83/81
f 36/83/81 49/82/80 70/84/82
f 24/85/83 60/86/84 3/87/85
f 3/87/85 60/86/84 48/88/86
f 3/87/85 48/88/86 46/89/87
f 60/86/84 24/85/83 61/90/88
f 61/90/88 24/85/83 23/91/89
f 61/90/88 23/91/89 62/92/90
f 62/92/90 23/91/89 22/93/91
f 62/92/90 22/93/91 63/94/92
f 63/94/92 22/93/91 21/95/93
f 63/94/92 21/95/93 64/96/94
f 64/96/94 21/95/93 20/97/95
f 64/96/94 20/97/95 65/98/96
f 65/98/96 20/97/95 19/99/97
f 65/98/96 19/99/97 66/100/98
f 66/100/98 19/99/97 18/101/99
f 66/100/98 18/101/99 67/102/100
f 67/102/100 18/101/99 17/103/101
f 67/102/100 17/103/101 68/104/102
f 68/104/102 17/103/101 16/105/103
f 68/104/102 16/105/103 69/106/104
f 69/106/104 16/105/103 6/107/105
f 69/106/104 6/107/105 70/108/106
f 70/108/106 6/107/105 36/109/107
f 36/109/107 6/107/105 4/110/108
f 36/109/107 4/110/108 37/111/109
f 37/111/109 4/110/108 38/112/110
f 38/112/110 4/110/108 39/113/111
f 39/113/111 4/110/108 40/114/112
f 40/114/112 4/110/108 41/115/113
f 41/115/113 4/110/108 42/116/114
f 42/116/114 4/110/108 43/117/115
f 43/117/115 4/110/108 44/118/116
f 44/118/116 4/110/108 45/119/117
f 45/119/117 4/110/108 46/89/87
f 46/89/87 4/110/108 3/87/85
f 15/120/118 50/121/119 5/122/120
f 5/122/120 50/121/119 49/123/121
f 5/122/120 49/123/121 35/124/122
f 50/121/119 15/120/118 51/125/123
f 51/125/123 15/120/118 14/126/124
f 51/125/123 14/126/124 52/127/125
f 52/127/125 14/126/124 13/128/126
f 52/127/125 13/128/126 53/129/127
f 53/129/127 13/128/126 12/130/128
f 53/129/127 12/130/128 54/131/129
f 54/131/129 12/130/128 11/132/130
f 54/131/129 11/132/130 55/133/131
f 55/133/131 11/132/130 10/134/132
f 55/133/131 10/134/132 56/135/133
f 56/135/133 10/134/132 9/136/134
f 56/135/133 9/136/134 57/137/135
f 57/137/135 9/136/134 8/138/136
f 57/137/135 8/138/136 58/139/137
f 58/139/137 8/138/136 7/140/138
f 58/139/137 7/140/138 59/141/139
f 59/141/139 7/140/138 2/142/140
f 59/141/139 2/142/140 47/143/141
f 47/143/141 2/142/140 25/144/142
f 25/144/142 2/142/140 1/145/143
f 25/144/142 1/145/143 26/146/144
f 26/146/144 1/145/143 27/147/145
f 27/147/145 1/145/143 28/148/146
f 28/148/146 1/145/143 29/149/147
f 29/149/147 1/145/143 30/150/148
f 30/150/148 1/145/143 31/151/149
f 31/151/149 1/145/143 32/152/150
f 32/152/150 1/145/143 33/153/151
f 33/153/151 1/145/143 34/154/152
f 34/154/152 1/145/143 35/124/122
f 35/124/122 1/145/143 5/122/120
# 70 vertices
# 154 texture params
# 152 normals
# 140 facets

# 1 groups
